# Blender v2.73 (sub 0) OBJ File: 'icosa.blend'
# www.blender.org
o Icosphere
v 0.000000 -1.902200 -0.000000
v 1.376432 -0.850692 1.000025
v -0.525740 -0.850692 1.618087
v -1.701375 -0.850692 -0.000000
v -0.525740 -0.850692 -1.618087
v 1.376432 -0.850692 -1.000025
v 0.525740 0.850692 1.618087
v -1.376432 0.850692 1.000025
v -1.376432 0.850692 -1.000025
v 0.525740 0.850692 -1.618087
v 1.701375 0.850692 -0.000000
v 0.000000 1.902200 -0.000000
vt 0.701661 0.237558
vt 0.624547 0.474893
vt 0.903550 0.384238
vt 0.452112 0.237562
vt 0.903550 0.090873
vt 0.624542 0.000225
vt 0.499780 0.565998
vt 0.499780 0.859357
vt 0.250227 0.712677
vt 0.999775 0.754351
vt 0.750227 0.879125
vt 0.750227 0.600117
vt 0.249777 0.712677
vt 0.249777 0.475343
vt 0.000225 0.565998
vt 0.249777 0.950012
vt 0.000225 0.859357
vt 0.500229 0.879125
vt 0.749777 0.754351
vt 0.500229 0.600117
vt 0.250227 0.475343
vt 0.999775 0.475343
vt 0.749777 0.475343
vt 0.250227 0.950012
vt 0.172655 0.000225
vt 0.451663 0.090873
vt 0.249773 0.237558
vt 0.000225 0.237562
vt 0.172660 0.474893
vt 0.451663 0.384238
vn 0.187600 -0.794700 0.577400
vn 0.607100 -0.794700 0.000000
vn -0.491100 -0.794700 0.356800
vn -0.491100 -0.794700 -0.356800
vn 0.187600 -0.794700 -0.577400
vn 0.982200 -0.187600 0.000000
vn 0.303500 -0.187600 0.934200
vn -0.794600 -0.187600 0.577400
vn -0.794600 -0.187600 -0.577400
vn 0.303500 -0.187600 -0.934200
vn 0.794600 0.187600 0.577400
vn -0.303500 0.187600 0.934200
vn -0.982200 0.187600 0.000000
vn -0.303500 0.187600 -0.934200
vn 0.794600 0.187600 -0.577400
vn 0.491100 0.794700 0.356800
vn -0.187600 0.794700 0.577400
vn -0.607100 0.794700 0.000000
vn -0.187600 0.794700 -0.577400
vn 0.491100 0.794700 -0.356800
s off
f 1/1/1 2/2/1 3/3/1
f 2/2/2 1/1/2 6/4/2
f 1/1/3 3/3/3 4/5/3
f 1/1/4 4/5/4 5/6/4
f 1/1/5 5/6/5 6/4/5
f 2/7/6 6/8/6 11/9/6
f 3/10/7 2/11/7 7/12/7
f 4/13/8 3/14/8 8/15/8
f 5/16/9 4/13/9 9/17/9
f 6/18/10 5/19/10 10/20/10
f 2/7/11 11/9/11 7/21/11
f 3/10/12 7/12/12 8/22/12
f 4/13/13 8/15/13 9/17/13
f 5/19/14 9/23/14 10/20/14
f 6/8/15 10/24/15 11/9/15
f 7/25/16 11/26/16 12/27/16
f 8/28/17 7/25/17 12/27/17
f 9/29/18 8/28/18 12/27/18
f 10/30/19 9/29/19 12/27/19
f 11/26/20 10/30/20 12/27/20
