# Blender v2.73 (sub 0) OBJ File: ''
# www.blender.org
o Cone
v 0.000000 -0.408272 -1.154943
v 1.000210 -0.408272 0.577471
v 0.000000 1.224817 0.000000
v -1.000210 -0.408272 0.577471
vt 0.464317 0.233146
vt 0.920970 0.000188
vt 0.920970 0.512829
vt 0.901481 0.976958
vt 0.464317 0.667790
vt 0.901481 0.513206
vt 0.437352 0.536060
vt 0.000188 0.690644
vt 0.437352 0.999812
vt 0.000188 0.267936
vt 0.463940 0.535683
vt 0.463940 0.000188
vn -0.000000 0.333400 0.942800
vn 0.816500 0.333400 -0.471400
vn -0.816500 0.333400 -0.471400
vn 0.000000 -1.000000 0.000000
s off
f 2/1/1 3/2/1 4/3/1
f 1/4/2 3/5/2 2/6/2
f 4/7/3 3/8/3 1/9/3
f 1/10/4 2/11/4 4/12/4
