# Blender v2.73 (sub 0) OBJ File: 'tetra.blend'
# www.blender.org
o Tetra
v 0.000000 -0.408250 -1.154667
v 1.000000 -0.408250 0.577333
v -1.000000 -0.408250 0.577333
v 0.000000 1.224750 0.000000
vt 0.000176 0.739450
vt 0.339209 0.999824
vt 0.339209 0.500297
vt 0.863669 0.000176
vt 0.863669 0.473541
vt 0.433488 0.252416
vt 0.433488 0.747996
vt 0.851094 0.473892
vt 0.851094 0.912630
vt 0.433137 0.499946
vt 0.433137 0.000176
vt 0.000176 0.249936
vn -0.816500 0.333300 -0.471400
vn 0.000000 0.333300 0.942800
vn 0.816500 0.333300 -0.471400
vn 0.000000 -1.000000 0.000000
s off
f 3/1/1 4/2/1 1/3/1
f 2/4/2 4/5/2 3/6/2
f 1/7/3 4/8/3 2/9/3
f 1/10/4 2/11/4 3/12/4
