# Blender v2.73 (sub 0) OBJ File: 'dedo.blend'
# www.blender.org
o Icosphere
v -1.370091 2.235582 1.017721
v -1.377910 2.234120 -0.993717
v -2.223630 0.526636 -1.622747
v -0.857558 -0.532651 -2.619568
v 0.838235 0.523394 -2.610474
v 0.527449 2.233208 -1.608269
v 0.523630 2.235564 1.626640
v 1.711745 2.234095 0.005901
v -2.220110 0.517513 1.605660
v -2.741344 -0.528661 0.006411
v 2.226694 -0.532359 -1.602190
v 2.755472 0.531466 0.006800
v 0.857556 0.539805 2.585193
v 2.225272 -0.534161 1.624870
v -0.534502 -2.225251 1.601750
v -0.526636 -2.234963 -1.622318
v -0.879959 -0.529886 2.567426
v -1.695565 -2.228605 0.006255
v 1.381592 -2.229399 1.017264
v 1.379662 -2.235444 -0.992607
vt 0.092248 0.814527
vt 0.239505 0.741788
vt 0.091575 0.551035
vt 0.266830 0.140110
vt 0.368406 0.000299
vt 0.532764 0.226513
vt 0.844603 0.558583
vt 0.984413 0.558583
vt 0.984413 0.705841
vt 0.531947 0.810073
vt 0.531947 0.936218
vt 0.368502 0.966531
vt 0.247308 0.316352
vt 0.094820 0.280515
vt 0.000299 0.425186
vt 0.999701 0.495544
vt 0.999701 0.355735
vt 0.852755 0.279089
vt 0.532764 0.334449
vt 0.392496 0.280515
vt 0.392827 0.559454
vt 0.532764 0.604401
vt 0.367687 0.560052
vt 0.266861 0.656905
vt 0.533362 0.697392
vt 0.758923 0.608959
vt 0.758923 0.785043
vt 0.266233 0.226518
vt 0.266233 0.053703
vt 0.101877 0.000299
vt 0.624707 0.278491
vt 0.624243 0.000299
vt 0.771652 0.053082
vt 0.760813 0.508285
vt 0.618992 0.557985
vt 0.533362 0.417699
vt 0.000299 0.697917
vt 0.239505 0.577432
vt 0.368409 0.279917
vt 0.532764 0.053698
vt 0.845410 0.797185
vt 0.759520 0.706514
vt 0.266861 0.859977
vt 0.368025 0.763476
vt 0.094368 0.550437
vt 0.247308 0.483356
vt 0.852755 0.495544
vt 0.761411 0.355735
vt 0.532764 0.507382
vt 0.306078 0.419856
vt 0.368658 0.762878
vt 0.532764 0.731900
vt 0.621157 0.558583
vt 0.618992 0.837678
vt 0.101874 0.279917
vt 0.000299 0.140106
vt 0.533362 0.139488
vt 0.771652 0.225894
vt 0.760813 0.332200
vt 0.621456 0.279089
vn -0.273900 0.449000 -0.850500
vn 0.000200 1.000000 -0.000700
vn 0.722800 0.442800 -0.530600
vn 0.721700 0.445400 0.529800
vn -0.895900 0.444300 0.003200
vn -0.722700 -0.447400 0.526900
vn 0.280600 -0.443700 -0.851100
vn -0.727800 -0.446500 -0.520600
vn -0.275000 0.432400 0.858700
vn -0.001200 -1.000000 0.003000
vn 0.895200 -0.445600 0.000100
vn 0.261600 -0.436900 0.860600
vn -0.274100 0.447500 -0.851200
vn -0.274100 0.448700 -0.850600
vn 0.722400 0.442700 -0.531200
vn 0.722800 0.443000 -0.530400
vn 0.723600 0.442100 0.530000
vn 0.722600 0.443200 0.530500
vn -0.896400 0.443200 0.002200
vn -0.724300 -0.445600 0.526200
vn -0.724900 -0.443900 0.526700
vn 0.281000 -0.443900 -0.850900
vn 0.280900 -0.444200 -0.850700
vn -0.727000 -0.447400 -0.520800
vn -0.727100 -0.447200 -0.520900
vn -0.278600 0.431500 0.858000
vn -0.276200 0.431200 0.859000
vn 0.895400 -0.445300 0.000100
vn 0.895400 -0.445200 0.000500
vn 0.260700 -0.437800 0.860400
vn 0.260300 -0.438000 0.860500
s off
f 3/1/1 2/2/1 5/3/1
f 1/4/2 7/5/2 6/6/2
f 6/7/3 8/8/3 12/9/3
f 13/10/4 14/11/4 12/12/4
f 9/13/5 1/14/5 2/15/5
f 18/16/6 15/17/6 17/18/6
f 5/19/7 11/20/7 16/21/7
f 4/22/8 16/23/8 18/24/8
f 1/25/9 17/26/9 13/27/9
f 18/28/10 16/29/10 20/30/10
f 11/31/11 14/32/11 19/33/11
f 17/34/12 15/35/12 19/36/12
f 5/3/13 4/37/13 3/1/13
f 2/2/14 6/38/14 5/3/14
f 6/6/2 2/39/2 1/4/2
f 7/5/2 8/40/2 6/6/2
f 11/41/15 5/42/15 6/7/15
f 6/7/16 12/9/16 11/41/16
f 8/43/17 7/44/17 13/10/17
f 13/10/18 12/12/18 8/43/18
f 3/45/19 10/46/19 9/13/19
f 9/13/19 2/15/19 3/45/19
f 17/18/20 10/47/20 18/16/20
f 10/47/21 17/18/21 9/48/21
f 16/21/22 4/49/22 5/19/22
f 11/20/23 20/50/23 16/21/23
f 10/51/24 3/52/24 4/22/24
f 4/22/25 18/24/25 10/51/25
f 17/26/26 1/25/26 9/53/26
f 1/25/27 13/27/27 7/54/27
f 20/30/10 15/55/10 18/28/10
f 15/55/10 20/30/10 19/56/10
f 14/32/28 11/31/28 12/57/28
f 11/31/29 19/33/29 20/58/29
f 19/36/30 13/59/30 17/34/30
f 13/59/31 19/36/31 14/60/31
